<svg xmlns="http://www.w3.org/2000/svg" xmlns:xlink="http://www.w3.org/1999/xlink" width="276" zoomAndPan="magnify" viewBox="0 0 206.87999 113.249998" height="151" preserveAspectRatio="xMidYMid meet" version="1.2"><defs><clipPath id="6a5eec91a0"><path d="M 26.910156 0 L 169.507812 0 L 169.507812 70.464844 L 26.910156 70.464844 Z M 26.910156 0 "/></clipPath></defs><g id="9ac641ab3c"><g clip-rule="nonzero" clip-path="url(#6a5eec91a0)"><path style=" stroke:none;fill-rule:evenodd;fill:#ffffff;fill-opacity:1;" d="M 64.628906 19.5 L 64.492188 38.242188 C 58.859375 39.15625 53.421875 40.050781 48.664062 40.847656 L 47.109375 25.8125 C 51.867188 24.066406 58.023438 21.851562 64.628906 19.5 Z M 83.3125 12.859375 L 83.15625 35.308594 C 77.722656 36.144531 71.949219 37.058594 66.300781 37.953125 L 64.6875 19.480469 C 70.804688 17.304688 77.273438 15.015625 83.3125 12.859375 Z M 51.441406 48.558594 L 87.683594 44.75 C 87.683594 44.75 87.566406 47.175781 84.382812 47.953125 C 81.175781 48.730469 51.304688 49.292969 51.304688 49.292969 Z M 54.101562 53.375 L 85.316406 50.710938 C 85.316406 50.710938 84.671875 53.023438 81.933594 53.703125 C 79.175781 54.382812 53.984375 54.113281 53.984375 54.113281 Z M 36.273438 46.363281 C 36.273438 46.363281 100.328125 36.789062 102.347656 37.214844 C 104.347656 37.679688 104.542969 40.207031 104.542969 40.207031 L 36.410156 46.886719 Z M 128.238281 49.683594 C 128.238281 49.683594 133.949219 50.34375 136.472656 51.316406 C 137.65625 51.761719 138.335938 52.65625 138.746094 53.46875 C 137.09375 53.140625 131.695312 52.035156 131.851562 52.460938 C 132.003906 52.925781 136.066406 54.8125 137.988281 55.296875 C 135.402344 55.355469 129.773438 55.453125 129.035156 55.023438 C 128.0625 54.460938 128.238281 49.683594 128.238281 49.683594 Z M 126.351562 67.609375 C 125.5 66.851562 124.78125 65.824219 124.199219 64.5625 C 117.671875 64.484375 111.804688 64.328125 108.097656 64.230469 C 107.496094 65.550781 106.757812 66.660156 105.902344 67.492188 C 113.089844 67.511719 119.964844 67.550781 126.351562 67.609375 Z M 74.535156 67.570312 C 79.953125 67.53125 85.683594 67.492188 91.609375 67.492188 C 90.890625 66.832031 90.210938 66 89.644531 65.007812 L 89.625 64.96875 L 76.261719 65.066406 C 75.796875 66.113281 75.214844 66.988281 74.535156 67.570312 Z M 51.597656 67.84375 C 55.925781 67.765625 60.726562 67.707031 65.890625 67.648438 C 65.191406 67.066406 64.570312 66.210938 64.105469 65.164062 L 53.753906 65.242188 C 53.171875 66.386719 52.433594 67.300781 51.597656 67.84375 Z M 104.386719 60.734375 C 105.105469 60.734375 106.132812 60.753906 107.378906 60.773438 L 109.164062 60.773438 L 109.164062 60.8125 C 120.914062 61.121094 146.628906 61.957031 156.417969 60.230469 C 157.992188 59.957031 159.199219 59.375 159.796875 58.675781 C 160.109375 58.269531 160.128906 56.617188 159.972656 54.519531 C 158.03125 54.753906 156.246094 54.910156 156.246094 54.910156 C 157.835938 54.230469 159.332031 53.453125 159.429688 53.179688 C 159.507812 52.945312 158.03125 53.140625 156.378906 53.433594 C 156.925781 51.121094 159.042969 50.34375 161.101562 49.644531 C 161.859375 54.230469 162.671875 60.25 161.859375 61.257812 C 161.335938 61.917969 159.664062 62.988281 157.175781 63.394531 C 153.527344 63.996094 148.125 64.328125 142.164062 64.484375 C 141.542969 65.84375 140.726562 66.96875 139.792969 67.765625 C 157.761719 68.039062 169.511719 68.484375 169.511719 68.96875 C 169.511719 69.785156 137.464844 70.464844 98.210938 70.464844 C 58.9375 70.464844 26.910156 69.785156 26.910156 68.96875 C 26.910156 68.621094 33.085938 68.289062 43.34375 68.019531 C 42.351562 67.492188 41.476562 66.484375 40.835938 65.164062 L 39.070312 65.085938 L 33.242188 63.492188 L 33.046875 62.519531 L 38.5625 62.445312 L 38.5625 58.460938 C 38.5625 58.34375 38.5625 58.269531 38.5625 58.171875 C 38.5625 53.433594 40.621094 49.566406 44.78125 49.585938 C 48.953125 49.585938 50.992188 53.433594 50.992188 58.171875 C 50.992188 58.269531 50.992188 58.382812 50.992188 58.484375 L 50.992188 62.289062 L 75.542969 61.976562 L 87.121094 61.839844 L 87.121094 59.355469 L 52.644531 59.335938 L 52.644531 58.074219 C 62.804688 57.625 75.992188 57.0625 87.121094 56.65625 L 87.121094 56.289062 C 87.121094 40.300781 102.640625 40.515625 102.640625 56.617188 C 102.640625 58.074219 102.484375 59.472656 102.191406 60.773438 L 104.386719 60.773438 Z M 100.695312 60.460938 C 99.726562 63.355469 98.035156 65.261719 96.113281 65.261719 C 94.074219 65.261719 92.289062 63.066406 91.375 59.820312 C 92.578125 61.917969 94.308594 63.238281 96.230469 63.238281 C 97.957031 63.238281 99.511719 62.191406 100.695312 60.460938 Z M 96.152344 49.957031 C 97.917969 49.957031 99.335938 52.054688 99.394531 54.65625 C 98.773438 53.257812 97.550781 52.304688 96.152344 52.304688 C 94.753906 52.304688 93.53125 53.257812 92.910156 54.65625 C 92.96875 52.054688 94.382812 49.957031 96.152344 49.957031 Z M 95.957031 58.929688 C 96.65625 58.929688 97.199219 57.878906 97.199219 56.597656 C 97.199219 55.316406 96.65625 54.269531 95.957031 54.269531 C 95.277344 54.269531 94.714844 55.316406 94.714844 56.597656 C 94.714844 57.878906 95.277344 58.929688 95.957031 58.929688 Z M 44.894531 54.578125 C 46.101562 54.578125 47.089844 56.074219 47.128906 57.976562 C 46.703125 56.945312 45.847656 56.25 44.894531 56.25 C 43.925781 56.25 43.089844 56.945312 42.664062 57.976562 C 42.703125 56.074219 43.671875 54.578125 44.894531 54.578125 Z M 44.546875 50.710938 C 46.917969 50.710938 48.878906 53.722656 49.226562 57.664062 C 48.410156 54.832031 46.625 52.886719 44.546875 52.886719 C 42.449219 52.886719 40.621094 54.910156 39.828125 57.78125 C 40.136719 53.800781 42.117188 50.710938 44.546875 50.710938 Z M 44.761719 61.0625 C 45.246094 61.0625 45.613281 60.308594 45.613281 59.375 C 45.613281 58.441406 45.246094 57.683594 44.761719 57.683594 C 44.292969 57.683594 43.90625 58.441406 43.90625 59.375 C 43.90625 60.308594 44.292969 61.0625 44.761719 61.0625 Z M 48.003906 62.191406 C 47.34375 64.289062 46.199219 65.667969 44.878906 65.667969 C 43.460938 65.667969 42.234375 64.074219 41.59375 61.726562 C 42.429688 63.238281 43.613281 64.191406 44.953125 64.191406 C 46.121094 64.191406 47.207031 63.433594 48.003906 62.191406 Z M 95.628906 45.644531 C 98.40625 45.644531 100.695312 48.964844 101.085938 53.296875 C 100.132812 50.1875 98.054688 48.03125 95.644531 48.03125 C 93.179688 48.03125 91.082031 50.265625 90.171875 53.433594 C 90.519531 49.042969 92.832031 45.644531 95.628906 45.644531 Z M 31.921875 40.960938 L 31.746094 30.824219 C 31.765625 28.085938 33.691406 25.96875 36.601562 24.824219 C 49.789062 19.597656 99.144531 2.019531 113.050781 0 C 117.574219 9.59375 121.90625 23.675781 125.984375 42.613281 C 125.109375 30.085938 122.796875 18.140625 119.441406 6.664062 C 121.089844 6.835938 123.148438 7.109375 124.820312 7.398438 C 126.605469 10.238281 129.226562 18.859375 129.675781 21.113281 C 129.773438 21.65625 134.609375 22.085938 134.238281 20.003906 C 134.199219 19.695312 134.082031 19.191406 133.929688 18.53125 L 133.949219 18.53125 C 133.949219 18.53125 133.890625 18.277344 133.773438 17.832031 C 133.402344 16.355469 132.859375 14.414062 132.199219 12.605469 C 132.042969 12.238281 131.90625 11.867188 131.753906 11.519531 C 131.210938 10.082031 130.585938 8.683594 129.925781 7.652344 C 129.773438 7.382812 129.675781 7.226562 129.675781 7.226562 L 129.617188 7.207031 C 129.1875 6.644531 128.761719 6.234375 128.335938 6.042969 C 126.566406 5.265625 121.578125 4.625 118.738281 4.332031 C 118.332031 2.953125 117.90625 1.59375 117.457031 0.234375 C 126.277344 0.875 134.042969 2.351562 143.230469 4.507812 C 144.628906 5.402344 145.96875 6.644531 147.234375 8.136719 C 149.371094 8.46875 155.953125 9.558594 157.507812 10.605469 C 157.761719 10.78125 158.03125 11.070312 158.300781 11.441406 L 158.363281 11.460938 C 158.363281 11.460938 159.894531 13.558594 161.082031 15.910156 C 162.304688 18.394531 163.179688 21.152344 163.410156 22.023438 C 163.859375 23.734375 159.003906 23.386719 158.886719 22.9375 C 158.339844 21.054688 155.371094 13.847656 153.46875 11.558594 C 152.105469 11.246094 150.515625 10.953125 149.15625 10.722656 C 152.226562 15.285156 154.828125 21.5 156.847656 28.472656 C 152.535156 29.308594 148.066406 30.007812 143.367188 30.960938 C 146.707031 30.84375 151.894531 30.511719 157.234375 29.910156 C 157.507812 30.902344 157.777344 31.894531 158.011719 32.902344 C 152.496094 34.339844 146.707031 35.386719 140.570312 36.457031 C 144.765625 36.417969 151.855469 36.144531 158.59375 35.371094 C 158.730469 35.992188 158.847656 36.613281 158.984375 37.214844 C 152.070312 39.175781 144.863281 40.300781 137.015625 41.429688 C 142.164062 41.546875 151.699219 41.371094 159.585938 40.339844 C 159.664062 40.847656 159.742188 41.332031 159.820312 41.835938 C 151.777344 44.246094 143.425781 45.117188 134.179688 46.285156 C 140.125 46.535156 151.992188 46.632812 160.363281 45.3125 C 160.4375 45.972656 160.535156 46.652344 160.617188 47.332031 C 152.320312 49.0625 140.453125 49.605469 127.867188 47.625 C 127.246094 47.527344 126.664062 47.371094 126.121094 47.175781 L 126.449219 58.152344 L 123.789062 45.914062 C 118.273438 41.816406 116.855469 32.164062 110.386719 32.164062 L 111.4375 56.8125 L 122.429688 58.929688 L 109.203125 58.734375 L 108.269531 29.5625 L 108.289062 29.5625 L 106.542969 6.449219 L 106.367188 32.222656 C 101.941406 32.589844 94.035156 33.679688 84.984375 35.039062 L 83.3125 12.859375 C 97.140625 7.964844 108.738281 3.90625 108.738281 3.90625 L 39.632812 26.027344 C 34.464844 27.054688 34.464844 31.464844 34.214844 35.660156 C 34.214844 35.660156 35.261719 30.960938 37.808594 29.367188 C 38.097656 29.152344 41.632812 27.8125 46.972656 25.851562 L 46.859375 41.136719 C 40.953125 42.128906 36.273438 42.925781 33.824219 43.332031 L 32.039062 58.289062 L 31.921875 40.960938 "/></g><g style="fill:#ffffff;fill-opacity:1;"><g transform="translate(11.135682, 96.806302)"><path style="stroke:none" d="M 17.203125 -10.0625 C 18.035156 -9.726562 18.675781 -9.226562 19.125 -8.5625 C 19.582031 -7.90625 19.8125 -7.101562 19.8125 -6.15625 C 19.8125 -4.132812 19.015625 -2.601562 17.421875 -1.5625 C 15.828125 -0.519531 13.695312 0 11.03125 0 L 0.8125 0 L 4.703125 -19.515625 L 14.125 -19.515625 C 16.226562 -19.515625 17.847656 -19.128906 18.984375 -18.359375 C 20.117188 -17.585938 20.6875 -16.484375 20.6875 -15.046875 C 20.6875 -13.859375 20.375 -12.84375 19.75 -12 C 19.125 -11.15625 18.273438 -10.507812 17.203125 -10.0625 Z M 8.5 -16.109375 L 7.578125 -11.515625 L 12.1875 -11.515625 C 13.375 -11.515625 14.296875 -11.75 14.953125 -12.21875 C 15.609375 -12.695312 15.9375 -13.378906 15.9375 -14.265625 C 15.9375 -15.492188 14.984375 -16.109375 13.078125 -16.109375 Z M 11.3125 -3.40625 C 12.582031 -3.40625 13.566406 -3.644531 14.265625 -4.125 C 14.972656 -4.601562 15.328125 -5.300781 15.328125 -6.21875 C 15.328125 -7.550781 14.351562 -8.21875 12.40625 -8.21875 L 6.9375 -8.21875 L 6 -3.40625 Z M 11.3125 -3.40625 "/></g></g><g style="fill:#ffffff;fill-opacity:1;"><g transform="translate(31.810831, 96.806302)"><path style="stroke:none" d="M 10 0.328125 C 7.550781 0.328125 5.628906 -0.273438 4.234375 -1.484375 C 2.835938 -2.703125 2.140625 -4.375 2.140625 -6.5 C 2.140625 -7.113281 2.21875 -7.804688 2.375 -8.578125 L 4.546875 -19.515625 L 9.09375 -19.515625 L 6.90625 -8.671875 C 6.800781 -8.054688 6.75 -7.507812 6.75 -7.03125 C 6.75 -5.851562 7.066406 -4.972656 7.703125 -4.390625 C 8.347656 -3.804688 9.285156 -3.515625 10.515625 -3.515625 C 11.890625 -3.515625 12.984375 -3.921875 13.796875 -4.734375 C 14.617188 -5.554688 15.210938 -6.867188 15.578125 -8.671875 L 17.75 -19.515625 L 22.1875 -19.515625 L 19.984375 -8.390625 C 18.796875 -2.578125 15.46875 0.328125 10 0.328125 Z M 10 0.328125 "/></g></g><g style="fill:#ffffff;fill-opacity:1;"><g transform="translate(53.12686, 96.806302)"><path style="stroke:none" d="M 7.609375 0.328125 C 6.066406 0.328125 4.585938 0.125 3.171875 -0.28125 C 1.765625 -0.6875 0.632812 -1.207031 -0.21875 -1.84375 L 1.609375 -5.328125 C 2.503906 -4.671875 3.507812 -4.164062 4.625 -3.8125 C 5.738281 -3.46875 6.882812 -3.296875 8.0625 -3.296875 C 9.300781 -3.296875 10.28125 -3.5 11 -3.90625 C 11.726562 -4.3125 12.09375 -4.867188 12.09375 -5.578125 C 12.09375 -6.148438 11.804688 -6.585938 11.234375 -6.890625 C 10.660156 -7.203125 9.738281 -7.535156 8.46875 -7.890625 C 7.207031 -8.265625 6.175781 -8.625 5.375 -8.96875 C 4.582031 -9.3125 3.890625 -9.828125 3.296875 -10.515625 C 2.710938 -11.203125 2.421875 -12.109375 2.421875 -13.234375 C 2.421875 -14.554688 2.785156 -15.71875 3.515625 -16.71875 C 4.253906 -17.726562 5.296875 -18.5 6.640625 -19.03125 C 7.992188 -19.570312 9.5625 -19.84375 11.34375 -19.84375 C 12.664062 -19.84375 13.910156 -19.695312 15.078125 -19.40625 C 16.253906 -19.125 17.257812 -18.710938 18.09375 -18.171875 L 16.390625 -14.71875 C 15.660156 -15.21875 14.84375 -15.59375 13.9375 -15.84375 C 13.03125 -16.09375 12.082031 -16.21875 11.09375 -16.21875 C 9.8125 -16.21875 8.796875 -15.992188 8.046875 -15.546875 C 7.304688 -15.109375 6.9375 -14.535156 6.9375 -13.828125 C 6.9375 -13.398438 7.09375 -13.039062 7.40625 -12.75 C 7.726562 -12.46875 8.128906 -12.238281 8.609375 -12.0625 C 9.097656 -11.882812 9.773438 -11.671875 10.640625 -11.421875 C 11.890625 -11.085938 12.910156 -10.75 13.703125 -10.40625 C 14.503906 -10.0625 15.1875 -9.5625 15.75 -8.90625 C 16.320312 -8.25 16.609375 -7.378906 16.609375 -6.296875 C 16.609375 -4.960938 16.238281 -3.796875 15.5 -2.796875 C 14.757812 -1.804688 13.707031 -1.035156 12.34375 -0.484375 C 10.988281 0.0546875 9.410156 0.328125 7.609375 0.328125 Z M 7.609375 0.328125 "/></g></g><g style="fill:#ffffff;fill-opacity:1;"><g transform="translate(70.263237, 96.806302)"><path style="stroke:none" d="M 26.671875 -19.515625 L 22.796875 0 L 18.5625 0 L 20.84375 -11.59375 L 13.40625 -2.0625 L 11.40625 -2.0625 L 7.390625 -11.703125 L 5.046875 0 L 0.8125 0 L 4.703125 -19.515625 L 8.390625 -19.515625 L 13.265625 -7.359375 L 22.796875 -19.515625 Z M 26.671875 -19.515625 "/></g></g><g style="fill:#ffffff;fill-opacity:1;"><g transform="translate(96.232601, 96.806302)"><path style="stroke:none" d="M 14.6875 -4.1875 L 5.609375 -4.1875 L 3.0625 0 L -1.75 0 L 10.875 -19.515625 L 15.328125 -19.515625 L 20.125 0 L 15.609375 0 Z M 13.9375 -7.609375 L 12.296875 -15.140625 L 7.6875 -7.609375 Z M 13.9375 -7.609375 "/></g></g><g style="fill:#ffffff;fill-opacity:1;"><g transform="translate(116.935609, 96.806302)"><path style="stroke:none" d="M 8 -15.828125 L 1.75 -15.828125 L 2.515625 -19.515625 L 19.515625 -19.515625 L 18.765625 -15.828125 L 12.546875 -15.828125 L 9.359375 0 L 4.84375 0 Z M 8 -15.828125 "/></g></g><g style="fill:#ffffff;fill-opacity:1;"><g transform="translate(133.514704, 96.806302)"><path style="stroke:none" d="M 8.46875 -15.890625 L 7.640625 -11.65625 L 16.703125 -11.65625 L 16 -8.140625 L 6.90625 -8.140625 L 6.015625 -3.625 L 16.671875 -3.625 L 15.921875 0 L 0.8125 0 L 4.703125 -19.515625 L 19.453125 -19.515625 L 18.703125 -15.890625 Z M 8.46875 -15.890625 "/></g></g><g style="fill:#ffffff;fill-opacity:1;"><g transform="translate(151.570613, 96.806302)"><path style="stroke:none" d=""/></g></g><g style="fill:#ffffff;fill-opacity:1;"><g transform="translate(158.815158, 96.806302)"><path style="stroke:none" d="M 4.703125 -19.515625 L 9.25 -19.515625 L 6.078125 -3.671875 L 15.859375 -3.671875 L 15.109375 0 L 0.8125 0 Z M 4.703125 -19.515625 "/></g></g><g style="fill:#ffffff;fill-opacity:1;"><g transform="translate(175.004153, 96.806302)"><path style="stroke:none" d="M 12.734375 -10.484375 L 19.515625 0 L 14.4375 0 L 9.421875 -7.640625 L 6.265625 -4.84375 L 5.296875 0 L 0.8125 0 L 4.703125 -19.515625 L 9.203125 -19.515625 L 7.421875 -10.5625 L 17.53125 -19.515625 L 23 -19.515625 Z M 12.734375 -10.484375 "/></g></g></g></svg>